<?xml version="1.0" encoding="utf-8"?>
<!DOCTYPE svg PUBLIC "-//W3C//DTD SVG 1.0//EN" "http://www.w3.org/TR/2001/REC-SVG-20010904/DTD/svg10.dtd">
<svg version="1.0" xmlns="http://www.w3.org/2000/svg" width="1814px" height="454px" viewBox="0 0 1814 454" preserveAspectRatio="xMidYMid meet">
 <g fill="#4a75f4">
  <path d="M141.5 416.3 c-18.6 -1.1 -43.6 -9.2 -59 -19.2 -3.8 -2.5 -8.2 -5.2 -9.7 -6 -1.6 -0.7 -2.8 -1.7 -2.8 -2.2 0 -0.5 -0.6 -0.9 -1.3 -0.9 -0.7 0 -2.3 -0.9 -3.5 -2 -1.2 -1.1 -2.4 -2 -2.7 -2 -1.2 0 -17.6 -11.3 -21.9 -15.1 -4.7 -4.1 -8.9 -11.6 -10.5 -18.9 -1.2 -5.2 -1.5 -51 -0.3 -51 0.4 0 3.4 2 6.7 4.4 3.2 2.5 7.1 5.1 8.5 5.8 1.4 0.7 3.4 2.1 4.4 3.1 1.1 0.9 2.6 1.7 3.3 1.7 0.7 0 1.3 0.4 1.3 0.8 0 0.5 1.2 1.5 2.8 2.3 1.5 0.8 3.6 2.2 4.6 3.2 1.1 0.9 2.6 1.7 3.3 1.7 0.7 0 1.3 0.4 1.3 0.8 0 0.5 1.2 1.5 2.7 2.3 1.6 0.8 3.7 2.2 4.7 3.2 1.1 0.9 2.6 1.7 3.3 1.7 0.7 0 1.3 0.4 1.3 0.8 0 0.5 1.2 1.5 2.8 2.3 1.5 0.8 3.6 2.2 4.6 3.2 1.1 0.9 2.6 1.7 3.3 1.7 0.7 0 1.3 0.4 1.3 0.8 0 0.5 1.2 1.5 2.8 2.3 1.5 0.8 2.9 1.7 3.2 2 0.8 0.9 12.2 7.5 17.6 10.2 2.8 1.4 9.3 4 14.5 5.8 8.5 2.8 10.6 3.2 21.4 3.2 10.4 0 13.1 -0.3 20.5 -2.7 12 -3.9 23.4 -10.2 48.6 -26.6 31.9 -20.8 49.9 -32.5 113.4 -73.7 11.8 -7.6 22.7 -14.7 24.3 -15.6 l2.7 -1.7 0 24.2 c0 26.3 -0.7 31.2 -5.4 39.3 -3.9 6.6 -2.1 5.4 -68.6 48.5 -11.3 7.3 -28.6 18.5 -38.5 25 -34.6 22.5 -46 28.2 -66.5 33.6 -8.5 2.2 -26.1 4.6 -31.5 4.2 -1.1 -0.1 -4.2 -0.3 -7 -0.5z"/>
  <path d="M1405.5 415.8 c-0.3 -0.7 -0.4 -60.5 -0.3 -132.8 l0.3 -131.5 18 0 18 0 0.3 6.3 0.3 6.3 4.2 -3.5 c5.3 -4.3 17.1 -10 25.7 -12.3 9 -2.4 32.8 -2.4 42 0.1 9.2 2.4 23.4 9.7 30.8 15.6 16.6 13.4 28.2 35.5 31.7 60.4 5.4 38.1 -5.5 73.9 -29.1 95.5 -11.1 10.2 -18.9 14.3 -33.9 18.1 -7.8 2 -10.7 2.2 -23 1.8 -16.2 -0.6 -26.4 -3.3 -37.2 -9.8 l-6.3 -3.9 0 45.5 0 45.4 -20.5 0 c-15.5 0 -20.7 -0.3 -21 -1.2z m102 -116.4 c12 -5.9 21.5 -19.7 25.1 -36.4 2.3 -11.1 2.1 -31.3 -0.5 -41.3 -7 -26.7 -23.5 -39.8 -48.7 -38.5 -16 0.9 -26.9 8.1 -34.3 22.8 -5.6 11.2 -7.5 22.9 -6.8 41.3 0.9 25.5 7.7 41.4 21.6 50.1 3.5 2.3 14.2 5.3 20.6 5.8 6.6 0.6 17.7 -1.3 23 -3.8z"/>
  <path d="M1594 284 l0 -133 18 0 17.9 0 0.3 6.6 0.3 6.7 4.5 -3.8 c9.4 -8 24.3 -13.2 40.6 -14.2 18 -1.1 36.2 3.3 49.6 11.9 13.1 8.4 28.3 27.1 33.4 41 8.8 23.9 9.9 53.9 3.1 78.3 -6.6 23.1 -23.6 44.8 -42.6 54.5 -12.1 6.1 -19.1 7.5 -36.6 7.5 -13.7 0 -17.1 -0.3 -23.8 -2.3 -7.7 -2.2 -14.2 -5.1 -20.4 -9.3 l-3.3 -2.1 0 45.6 0 45.6 -20.5 0 -20.5 0 0 -133z m102.4 15.1 c11.1 -5.4 19.1 -16.3 23.8 -32.8 3 -10.4 3.2 -35.2 0.4 -45.2 -4.5 -16.3 -13 -27.7 -25.2 -33.7 -6.4 -3.2 -8.5 -3.7 -16.6 -4.2 -24.6 -1.2 -39 10 -46 35.7 -2.9 10.7 -3.1 35.1 -0.4 46.6 4.5 19.4 14.4 31.7 28.6 35.6 12.6 3.4 25.6 2.6 35.4 -2z"/>
  <path d="M649 339 c-35.5 -6 -61.4 -30.5 -71 -67.1 -2.8 -10.8 -3.8 -34.3 -2 -46.8 7.9 -54.1 51.9 -86 107.1 -77.6 28 4.2 52.2 22.4 64.8 48.8 12.1 25.3 12.8 62.4 1.7 89.6 -9.6 23.7 -30.6 43.1 -54.1 49.9 -13.5 3.9 -33.9 5.3 -46.5 3.2z m27.9 -38.5 c14.7 -3.1 23.6 -10.1 30.2 -23.8 5.7 -11.9 7.2 -20.2 6.6 -37.2 -0.3 -12 -0.8 -15.2 -3.2 -22.4 -8.2 -24.2 -24.7 -34.4 -51.8 -31.9 -26.4 2.4 -42.1 26.6 -40.4 62.3 0.3 6.1 1.3 13.7 2.2 17 7.5 28.1 29 41.8 56.4 36z"/>
  <path d="M826.2 337.6 c-14.2 -3.8 -22 -8.4 -33.7 -20.1 -10.2 -10.2 -15.9 -18.5 -20.4 -29.6 -9.5 -23.9 -10.7 -56.4 -3 -81.5 4.5 -14.5 13.4 -29 23.7 -38.5 14.8 -13.8 30.3 -20.4 50.8 -21.6 17.3 -1 34.4 2.9 46.7 10.7 l4.7 3 0 -35 0 -35 20.5 0 20.5 0 0 122.5 0 122.5 -18 0 -17.9 0 -0.3 -6.5 -0.3 -6.5 -4.5 3.7 c-5.4 4.3 -16.3 9.6 -24.5 11.9 -3.9 1.1 -11.1 1.8 -20.5 2 -12.9 0.4 -15.5 0.1 -23.8 -2z m46.3 -37.7 c11.7 -4.4 20.6 -16.2 25.1 -33.4 2.6 -9.7 2.6 -36.9 0.1 -46.9 -4 -16 -12.1 -27.3 -23.5 -32.8 -6.5 -3.1 -7.2 -3.3 -19.2 -3.3 -12.3 0 -12.7 0.1 -19.5 3.4 -12.9 6.4 -21.2 17.4 -25.7 34 -2.9 10.6 -3.1 32.4 -0.4 43.1 5.7 23 18.9 36.7 37.3 38.8 8.5 0.9 18.6 -0.2 25.8 -2.9z"/>
  <path d="M1024.6 338.4 c-34.8 -6.9 -59.1 -30.4 -68.6 -66.5 -2.8 -10.8 -3.8 -34.3 -2 -46.8 7.9 -54.2 51.9 -86 107.2 -77.6 37.8 5.7 66.6 35.7 72.9 76 1.6 10.7 1.4 32.2 -0.5 41.8 -6.8 34.9 -29.6 61.6 -60.1 70.5 -14.8 4.3 -35 5.4 -48.9 2.6z m30.3 -37.9 c14.6 -3.1 23.7 -10.2 30.3 -24 5.6 -11.7 7.1 -20.1 6.5 -37 -0.3 -12 -0.8 -15.2 -3.2 -22.4 -8.2 -24.2 -25.4 -34.8 -52.1 -31.9 -26.4 2.8 -41.9 26.8 -40.1 62.1 0.9 18.4 5.6 31.5 14.9 41.3 10.7 11.3 26.3 15.6 43.7 11.9z"/>
  <path d="M485.8 231.8 l-0.3 -103.3 -39.7 -0.3 -39.8 -0.2 0 -19 0 -19 98.6 0 c60.3 0 98.3 0.4 97.9 0.9 -0.3 0.5 0.4 1.2 1.5 1.6 1.9 0.6 2 1.5 2 18.1 l0 17.4 -39.5 0 -39.5 0 0 103.5 0 103.5 -20.5 0 -20.5 0 -0.2 -103.2z"/>
  <path d="M1182 334.5 c0 -0.6 70.1 -222.9 74.6 -236.8 l2.6 -7.7 30 0.2 30.1 0.3 4.4 14 c2.4 7.7 6.8 21.7 9.8 31 49.2 156.1 62.5 198.3 62.5 198.8 0 0.4 -9.4 0.7 -20.9 0.7 l-20.9 0 -6.2 -19.2 c-3.3 -10.6 -7.1 -22.4 -8.4 -26.3 l-2.3 -7 -48.4 0 -48.4 0 -7 22.2 c-7.9 24.8 -9.7 28 -16.1 27.4 -2.4 -0.2 -3.6 0.2 -4 1.3 -0.5 1.4 -2.9 1.6 -16 1.6 -8.5 0 -15.4 -0.2 -15.4 -0.5z m142.2 -91.1 c0.4 -0.3 -0.4 -3.8 -1.7 -7.7 -1.3 -4 -9.2 -28.6 -17.5 -54.7 -17.7 -55.9 -15.9 -50.4 -16.5 -49.8 -1.1 1.1 -35.4 111.2 -34.9 112 0.6 0.9 69.7 1.1 70.6 0.2z"/>
  <path d="M128.5 302.8 c-8 -1.5 -25.5 -7.3 -33.6 -11 -4.1 -1.9 -12.8 -7 -19.4 -11.4 -6.6 -4.3 -13.2 -8.5 -14.8 -9.3 -1.5 -0.8 -2.7 -1.8 -2.7 -2.3 0 -0.4 -0.6 -0.8 -1.3 -0.8 -0.7 0 -2.2 -0.8 -3.3 -1.7 -1 -1 -3.2 -2.5 -4.9 -3.3 -5.3 -2.6 -12.5 -10.7 -15.8 -17.8 l-3.2 -6.7 -0.3 -25.7 c-0.2 -14.2 -0.1 -25.8 0.2 -25.8 0.4 0 16.9 10.9 36.9 24.2 32.5 21.7 46 29.9 55.2 33.5 15.4 6 31.9 7.3 45.7 3.5 14.5 -4 20.9 -7.6 65.3 -36.5 45 -29.2 53.8 -34.9 72 -46.7 10.5 -6.8 26 -17 34.6 -22.6 8.6 -5.6 16.6 -10.7 17.9 -11.4 l2.2 -1.2 -0.4 26.9 c-0.4 29.4 -0.6 29.9 -7.2 39.2 -3.2 4.5 -10.8 9.8 -56.3 39.2 -12.2 7.9 -30 19.5 -39.5 25.6 -9.5 6.2 -20.9 13.6 -25.3 16.4 -19.6 12.7 -39.1 21.1 -57.4 24.9 -10.8 2.2 -34.9 2.6 -44.6 0.8z"/>
  <path d="M130.5 190.9 c-2.2 -0.5 -6.2 -1.4 -9 -2 -2.7 -0.6 -8.1 -2.2 -12 -3.5 -8.4 -2.9 -29.5 -13.3 -29.5 -14.5 0 -0.5 -0.5 -0.9 -1.2 -0.9 -0.6 0 -4.3 -2.1 -8.2 -4.8 -3.9 -2.6 -8.3 -5.3 -9.9 -6.1 -1.5 -0.8 -2.7 -1.8 -2.7 -2.3 0 -0.4 -0.6 -0.8 -1.3 -0.8 -0.7 0 -2.2 -0.8 -3.3 -1.7 -1 -1 -3.1 -2.4 -4.6 -3.2 -1.6 -0.8 -2.8 -1.8 -2.8 -2.3 0 -0.4 -0.6 -0.8 -1.4 -0.8 -2.2 0 -8.4 -7.8 -11.9 -15 l-3.2 -6.4 -0.3 -26.4 -0.3 -26.4 34.4 23.1 c19 12.7 35 23.1 35.6 23.1 0.6 0 1.1 0.4 1.1 0.8 0 0.5 4.4 3.1 9.8 5.9 8.5 4.5 13 6.3 25.8 10.3 1.7 0.6 7.7 1 13.5 1 18.3 0 32.5 -5.5 59.7 -23.1 39.4 -25.6 54 -35 71.2 -46.2 10.2 -6.6 26.6 -17.3 36.5 -23.7 37 -24 41.6 -27 42.1 -27 0.3 0 0.4 12 0.2 26.8 -0.4 24.8 -0.5 27 -2.6 31.5 -3 6.6 -9.9 13.6 -19.5 19.8 -4.5 2.9 -17.1 11 -27.9 18.1 -83.9 54.4 -83.3 54 -91.3 58.6 -10.5 6 -26.8 12.6 -38.5 15.7 -9.1 2.4 -12.8 2.8 -27.5 3.1 -9.3 0.2 -18.8 -0.1 -21 -0.7z"/>
 </g>
</svg>